<?xml version="1.0" encoding="UTF-8"?>
<!DOCTYPE svg PUBLIC "-//W3C//DTD SVG 1.1//EN" "http://www.w3.org/Graphics/SVG/1.1/DTD/svg11.dtd">
<svg xmlns="http://www.w3.org/2000/svg" xmlns:xlink="http://www.w3.org/1999/xlink" version="1.1" width="109px" height="139px" viewBox="-0.5 -0.5 109 139"><defs/><g><rect x="34" y="34" width="40" height="70" rx="20" ry="20" fill="rgb(255, 255, 255)" stroke="rgb(0, 0, 0)" pointer-events="all"/><path d="M 34 69 L 74 69" fill="none" stroke="rgb(0, 0, 0)" stroke-miterlimit="10" pointer-events="stroke"/><path d="M 54 34 L 54 69" fill="none" stroke="rgb(0, 0, 0)" stroke-miterlimit="10" pointer-events="stroke"/><rect x="51" y="44" width="6" height="17" rx="3" ry="3" fill="rgb(255, 255, 255)" stroke="rgb(0, 0, 0)" pointer-events="all"/><path d="M 53.8 24 L 53.8 7.18" fill="none" stroke="#808080" stroke-width="0.5" stroke-miterlimit="10" pointer-events="stroke"/><path d="M 53.8 4.56 L 55.55 8.06 L 53.8 7.18 L 52.05 8.06 Z" fill="#808080" stroke="#808080" stroke-width="0.5" stroke-miterlimit="10" pointer-events="all"/><path d="M 53.8 114 L 53.8 130.82" fill="none" stroke="#808080" stroke-width="0.5" stroke-miterlimit="10" pointer-events="stroke"/><path d="M 53.8 133.44 L 52.05 129.94 L 53.8 130.82 L 55.55 129.94 Z" fill="#808080" stroke="#808080" stroke-width="0.5" stroke-miterlimit="10" pointer-events="all"/><path d="M 84 68.8 L 100.82 68.8" fill="none" stroke="#808080" stroke-width="0.5" stroke-miterlimit="10" pointer-events="stroke"/><path d="M 103.44 68.8 L 99.94 70.55 L 100.82 68.8 L 99.94 67.05 Z" fill="#808080" stroke="#808080" stroke-width="0.5" stroke-miterlimit="10" pointer-events="all"/><path d="M 24 68.8 L 7.18 68.8" fill="none" stroke="#808080" stroke-width="0.5" stroke-miterlimit="10" pointer-events="stroke"/><path d="M 4.56 68.8 L 8.06 67.05 L 7.18 68.8 L 8.06 70.55 Z" fill="#808080" stroke="#808080" stroke-width="0.5" stroke-miterlimit="10" pointer-events="all"/></g></svg>